#!OML:ASF X:\für Bonn\!DataBase\2005_08_12_Daniel\c3d\Daniel.ASF
:FULLY-SPECIFIED
:DEGREES
81
root 2.78057 17.5948 17.2842 -5.79803 14.4055 -1.23181
lowerback 6.11643 1.9913 3.65969
upperback -0.310638 2.76047 -4.9562
thorax -3.33827 1.27867 -7.50461
lowerneck 3.55413 -5.35914 -2.81684
upperneck 13.6657 -7.57258 3.72559
head 4.15683 -3.72724 1.53757
rclavicle 4.04527e-014 3.18055e-015
rhumerus 55.7599 -6.24278 -67.8196
rradius 17.6705
rwrist 21.7332
rhand -11.95 14.053
rfingers 7.12502
rthumb 14.1051 -15.4483
lclavicle 4.04527e-014 3.18055e-015
lhumerus -42.319 48.5055 49.56
lradius 14.626
lwrist -53.6001
lhand -12.0493 -6.26658
lfingers 7.12502
lthumb 14.0095 23.2413
rfemur 11.8332 16.3418 22.9633
rtibia 12.0018
rfoot -24.5197 -26.0297
rtoes -12.9162
lfemur -0.905086 -18.7105 -18.0406
ltibia 29.6441
lfoot -22.9194 3.95561
ltoes -15.1981
82
root 2.77697 17.5953 17.2849 -5.79585 14.495 -1.24606
lowerback 6.1594 2.05424 3.74722
upperback -0.321385 2.85077 -4.99454
thorax -3.35361 1.32148 -7.60627
lowerneck 3.52198 -5.44057 -2.85222
upperneck 13.7128 -7.69143 3.80106
head 4.19136 -3.78386 1.56421
rclavicle -4.16454e-014 3.02153e-014
rhumerus 56.4797 -7.12208 -69.0803
rradius 16.5392
rwrist 23.8517
rhand -11.3618 14.1059
rfingers 7.12502
rthumb 14.672 -15.3549
lclavicle -4.16454e-014 3.02153e-014
lhumerus -42.4201 48.6632 49.3643
lradius 14.6269
lwrist -53.8251
lhand -12.002 -6.20021
lfingers 7.12502
lthumb 14.0551 23.3045
rfemur 11.823 16.2409 22.9748
rtibia 12.0153
rfoot -24.5284 -26.0209
rtoes -12.9751
lfemur -0.939298 -18.7427 -18.0049
ltibia 29.649
lfoot -22.9055 3.9053
ltoes -15.2069
83
root 2.77264 17.5961 17.2854 -5.78592 14.5732 -1.23284
lowerback 6.2117 2.12865 3.795
upperback -0.336048 2.95354 -5.03689
thorax -3.37763 1.37078 -7.69097
lowerneck 3.49396 -5.53192 -2.88949
upperneck 13.7581 -7.82448 3.88292
head 4.22585 -3.84737 1.59294
rclavicle -2.38542e-014 9.54166e-015
rhumerus 57.1771 -8.04112 -70.4328
rradius 15.5228
rwrist 26.0087
rhand -10.7375 14.0574
rfingers 7.12502
rthumb 15.2733 -15.3587
lclavicle -2.38542e-014 9.54166e-015
lhumerus -42.4244 48.6927 49.3021
lradius 14.6205
lwrist -53.9121
lhand -11.9872 -6.15865
lfingers 7.12502
lthumb 14.0693 23.3451
rfemur 11.8139 16.1652 22.9635
rtibia 12.0253
rfoot -24.5374 -26.0245
rtoes -12.9801
lfemur -0.979364 -18.7376 -17.9883
ltibia 29.6512
lfoot -22.8709 3.8349
ltoes -15.2598
84
root 2.7686 17.5962 17.286 -5.77242 14.6557 -1.23205
lowerback 6.24442 2.19914 3.86813
upperback -0.33678 3.05289 -5.08354
thorax -3.37478 1.41927 -7.79315
lowerneck 3.42322 -5.62114 -2.91651
upperneck 13.8113 -7.95409 3.96025
head 4.27057 -3.90821 1.61712
rclavicle -2.68359e-014 -3.97569e-014
rhumerus 57.9528 -9.10113 -72.115
rradius 14.5397
rwrist 28.5085
rhand -10.1334 14.0069
rfingers 7.12502
rthumb 15.8552 -15.364
lclavicle -2.68359e-014 -3.97569e-014
lhumerus -42.3481 48.694 49.3193
lradius 14.6232
lwrist -53.9357
lhand -11.9381 -6.07054
lfingers 7.12502
lthumb 14.1167 23.4299
rfemur 11.8069 16.1309 22.9734
rtibia 12.028
rfoot -24.5863 -26.051
rtoes -12.9193
lfemur -1.01999 -18.7763 -17.9643
ltibia 29.6582
lfoot -22.8613 3.78528
ltoes -15.263
85
root 2.76441 17.5963 17.2861 -5.77839 14.7306 -1.24367
lowerback 6.31221 2.26472 3.9337
upperback -0.347963 3.14619 -5.10475
thorax -3.40494 1.46343 -7.86573
lowerneck 3.4036 -5.70045 -2.99137
upperneck 13.8359 -8.07042 4.04211
head 4.29768 -3.96559 1.65323
rclavicle -6.65929e-014 -1.43125e-014
rhumerus 58.7119 -10.1503 -73.8516
rradius 13.6627
rwrist 31.09
rhand -9.51093 13.9151
rfingers 7.12502
rthumb 16.4546 -15.407
lclavicle -6.65929e-014 -1.43125e-014
lhumerus -42.368 48.7266 49.2842
lradius 14.6388
lwrist -53.96
lhand -11.909 -6.03735
lfingers 7.12502
lthumb 14.1447 23.4612
rfemur 11.8065 16.0668 22.995
rtibia 12.0426
rfoot -24.6044 -26.0497
rtoes -12.897
lfemur -1.0457 -18.7999 -17.9331
ltibia 29.6613
lfoot -22.842 3.75589
ltoes -15.3186
86
root 2.75988 17.5969 17.2863 -5.76853 14.8157 -1.23204
lowerback 6.36962 2.33427 3.97971
upperback -0.358216 3.24281 -5.14291
thorax -3.42754 1.50983 -7.94499
lowerneck 3.3525 -5.78316 -3.04961
upperneck 13.8937 -8.19347 4.13528
head 4.34333 -4.02423 1.68885
rclavicle 4.30369e-014 4.6118e-014
rhumerus 59.5455 -11.3065 -75.864
rradius 12.8188
rwrist 33.8824
rhand -8.91979 13.7897
rfingers 7.12502
rthumb 17.0236 -15.4843
lclavicle 4.30369e-014 4.6118e-014
lhumerus -42.329 48.735 49.2984
lradius 14.6462
lwrist -53.9899
lhand -11.8678 -5.98165
lfingers 7.12502
lthumb 14.1843 23.5141
rfemur 11.8022 16.0086 22.9897
rtibia 12.0481
rfoot -24.6329 -26.0581
rtoes -12.7964
lfemur -1.08501 -18.8221 -17.9197
ltibia 29.6676
lfoot -22.8242 3.70394
ltoes -15.366
87
root 2.75538 17.5973 17.2861 -5.75495 14.9051 -1.232
lowerback 6.41566 2.39729 4.03685
upperback -0.360639 3.33162 -5.17854
thorax -3.4361 1.55288 -8.02643
lowerneck 3.32282 -5.86091 -3.08271
upperneck 13.9062 -8.3068 4.21225
head 4.36566 -4.07815 1.71583
rclavicle -5.38706e-014 -3.02153e-014
rhumerus 60.5524 -12.6642 -78.4291
rradius 11.9853
rwrist 37.2248
rhand -8.38147 13.6817
rfingers 7.12502
rthumb 17.5418 -15.5469
lclavicle -5.38706e-014 -3.02153e-014
lhumerus -42.2129 48.6659 49.4257
lradius 14.6752
lwrist -53.8473
lhand -11.8712 -5.93703
lfingers 7.12502
lthumb 14.1811 23.5589
rfemur 11.7858 15.9446 22.9964
rtibia 12.058
rfoot -24.6543 -26.0814
rtoes -12.788
lfemur -1.14121 -18.8293 -17.8819
ltibia 29.6721
lfoot -22.8 3.61556
ltoes -15.3679
88
root 2.75105 17.5977 17.2864 -5.74117 14.9818 -1.23089
lowerback 6.45811 2.46529 4.09127
upperback -0.360648 3.42705 -5.21053
thorax -3.43905 1.59961 -8.10259
lowerneck 3.24427 -5.93897 -3.15416
upperneck 13.9583 -8.42306 4.304
head 4.41537 -4.13378 1.75261
rclavicle -5.6107e-014 4.77083e-015
rhumerus 61.3942 -13.832 -80.6424
rradius 11.4428
rwrist 40.1286
rhand -7.79712 13.4427
rfingers 7.12502
rthumb 18.104 -15.7348
lclavicle -5.6107e-014 4.77083e-015
lhumerus -42.0936 48.621 49.5598
lradius 14.6968
lwrist -53.7009
lhand -11.8662 -5.90053
lfingers 7.12502
lthumb 14.1859 23.5951
rfemur 11.7617 15.8982 23.0037
rtibia 12.0792
rfoot -24.6806 -26.1078
rtoes -12.779
lfemur -1.18149 -18.8514 -17.8574
ltibia 29.6731
lfoot -22.7823 3.57163
ltoes -15.4161
89
root 2.74558 17.598 17.2862 -5.73124 15.0725 -1.21877
lowerback 6.52186 2.53337 4.12425
upperback -0.36784 3.52121 -5.24227
thorax -3.46271 1.64506 -8.16783
lowerneck 3.22172 -6.02633 -3.19449
upperneck 13.9762 -8.54767 4.36377
head 4.43869 -4.19426 1.77462
rclavicle -6.88789e-014 2.38542e-014
rhumerus 62.2616 -15.0292 -82.9909
rradius 10.9903
rwrist 43.1283
rhand -7.18132 13.2091
rfingers 7.12502
rthumb 18.6964 -15.9124
lclavicle -6.88789e-014 2.38542e-014
lhumerus -41.9358 48.5038 49.7641
lradius 14.7172
lwrist -53.4378
lhand -11.885 -5.89347
lfingers 7.12502
lthumb 14.1678 23.6034
rfemur 11.7759 15.8467 23.004
rtibia 12.0508
rfoot -24.7091 -26.1317
rtoes -12.7198
lfemur -1.21659 -18.8773 -17.8363
ltibia 29.6541
lfoot -22.7372 3.50023
ltoes -15.3673
90
root 2.73921 17.5987 17.286 -5.72952 15.1603 -1.23188
lowerback 6.58754 2.59507 4.16815
upperback -0.370263 3.60817 -5.26216
thorax -3.48355 1.68697 -8.22607
lowerneck 3.17366 -6.09883 -3.25329
upperneck 14.0106 -8.6542 4.43845
head 4.47431 -4.24562 1.80466
rclavicle 7.20594e-015 -4.77083e-015
rhumerus 63.2038 -16.2031 -85.4474
rradius 10.5712
rwrist 46.1549
rhand -6.61152 12.9481
rfingers 7.12502
rthumb 19.2444 -16.1198
lclavicle 7.20594e-015 -4.77083e-015
lhumerus -41.8176 48.4627 49.9103
lradius 14.7342
lwrist -53.2752
lhand -11.8945 -5.90555
lfingers 7.12502
lthumb 14.1587 23.592
rfemur 11.7907 15.8124 23.0455
rtibia 12.0255
rfoot -24.7249 -26.1937
rtoes -12.7111
lfemur -1.25251 -18.8413 -17.7715
ltibia 29.6333
lfoot -22.7005 3.39418
ltoes -15.4237
